<?xml version="1.0" encoding="utf-8"?>
<!-- Generator: Adobe Illustrator 19.0.0, SVG Export Plug-In . SVG Version: 6.00 Build 0)  -->
<svg version="1.1" id="Capa_1" xmlns="http://www.w3.org/2000/svg" xmlns:xlink="http://www.w3.org/1999/xlink" x="0px" y="0px"
	 viewBox="8 114.9 612 612" style="enable-background:new 8 114.9 612 612;" xml:space="preserve">
<style type="text/css">
	.st0{fill:#CD3333;}
</style>
<g>
	<g>
		<path class="st0" d="M445.5,289.4c5.1,5.1,13.4,5.1,18.5,0l152.1-152.1c5.1-5.1,5.1-13.4,0-18.6c-5.1-5.1-13.4-5.1-18.5,0
			L445.5,270.8C440.4,276,440.4,284.3,445.5,289.4z"/>
		<path class="st0" d="M577,404.4L560.3,221l-45.8,45.8c2.7,17-2.5,35-15.6,48.1c-21.8,21.8-57.1,21.8-78.8,0
			c-21.8-21.8-21.8-57.1,0-78.9c13.1-13.1,31.1-18.3,48.1-15.6l45.8-45.8l-183.4-16.7c-7.2-0.6-14.4,1.9-19.5,7.1L15.2,460.8
			c-9.5,9.5-9.5,25,0,34.5L81,561.2l32.5-32.5l92.8,92.8l-32.5,32.5l65.8,65.8c9.5,9.5,25,9.5,34.5,0l295.9-295.8
			C575,418.8,577.6,411.6,577,404.4z"/>
	</g>
</g>
</svg>
