<?xml version="1.0" encoding="utf-8"?>
<!-- Generator: Adobe Illustrator 19.0.0, SVG Export Plug-In . SVG Version: 6.00 Build 0)  -->
<svg version="1.1" id="Capa_1" xmlns="http://www.w3.org/2000/svg" xmlns:xlink="http://www.w3.org/1999/xlink" x="0px" y="0px"
	 viewBox="-113 236.8 368 368" style="enable-background:new -113 236.8 368 368;" xml:space="preserve">
<style type="text/css">
	.st0{fill:#CD3333;}
</style>
<g>
	<path class="st0" d="M0.2,400.8C17,438,53.1,454.2,71,454.2c11.8,0,31.4-7,48.3-22.4c-6.2,0.4-12.8,0.6-19.8,0.6
		c-1.7,0-3.4,0-5.2,0c-3.5,2.7-7.9,4.3-12.5,4.3h-15c-11.3,0-20.5-9.2-20.5-20.5c0-11.3,9.2-20.5,20.5-20.5h15
		c5.4,0,10.5,2.1,14.2,5.8c1.2,0,2.5,0,3.7,0c19.4,0,32.1-1.8,40.5-3.9c-1.1-2.6-1.7-5.5-1.7-8.5v-52c0-5.4,2-10.6,5.5-14.6
		c-1.9-14.4-5.2-25.4-10.2-33.5c-10.3-16.7-30.3-24.5-62.7-24.5c-26.9,0-45.5,5.6-56.8,17.1C5.4,290.4,0.3,303.1-2,322.3
		c3.5,4,5.6,9.3,5.6,14.7v52C3.6,393.4,2.3,397.4,0.2,400.8z"/>
	<path class="st0" d="M-36.7,401.3h18c6.8,0,12.3-5.5,12.3-12.3v-52c0-4.5-2.5-8.5-6.1-10.6c4-42.6,20.4-72.1,83.6-72.1
		c36.3,0,58.9,9.3,71.2,29.3c7.2,11.6,10.6,26.6,12.2,42.9c-3.6,2.1-6,6.1-6,10.5v52c0,5.8,4.1,10.7,9.6,12
		c-7.9,5.2-24.4,10.5-58.4,10.5c-2.8,0-5.6,0-8.6-0.1c-1.8-3.4-5.3-5.7-9.3-5.7h-15c-5.8,0-10.5,4.7-10.5,10.5
		c0,5.8,4.7,10.5,10.5,10.5h15c3.5,0,6.6-1.7,8.5-4.4c3.2,0.1,6.3,0.1,9.2,0.1c38.3,0,62.7-6.5,72.6-19.5c0.4-0.6,0.8-1.1,1.2-1.6
		h5.5c6.8,0,12.3-5.5,12.3-12.3v-52c0-6.8-5.5-12.3-12.3-12.3H172c-1.9-19.6-6.1-36.3-14.8-50.3c-15.6-25.3-43.8-37.6-86.2-37.6
		c-42.3,0-70.5,12.3-86.2,37.6c-8.7,14-12.9,30.7-14.8,50.3h-6.8c-6.8,0-12.3,5.5-12.3,12.3v52C-49,395.8-43.5,401.3-36.7,401.3z"/>
	<path class="st0" d="M219.4,554.1c-4.1-25.4-12.5-58-29.3-69.7c-11.5-7.9-51.6-29.3-68.7-38.5l-0.4-0.2c-2-1-4.4-0.8-6.1,0.5
		c-9,7.1-18.8,11.8-29.2,14.1c-1.8,0.4-3.4,1.7-4,3.5l-10.6,28l-10.6-28c-0.7-1.8-2.2-3.1-4-3.5c-10.4-2.3-20.2-7.1-29.2-14.1
		c-1.7-1.4-4.1-1.6-6.1-0.5c-16.9,9-57.6,30.9-69,38.7c-19.4,13.1-27.9,60.3-29.4,69.7c-0.1,0.9-0.1,1.9,0.3,2.8
		c0.7,2,18.5,48,148.1,48c129.6,0,147.4-46,148.1-48C219.4,556,219.5,555.1,219.4,554.1z M159,525h-51.3v-10.8H159V525z"/>
</g>
</svg>
